#!OML:ASF H:\Male1\Project 1\Capture day 1\Session 1\Male1.ASF
:FULLY-SPECIFIED
:DEGREES
221
root 8.92003 15.6464 3.14996 189.526 6.3809 -177.501
lowerback 24.8198 -0.718778 -0.0610431
upperback 11.4372 1.66078 -0.319182
thorax -1.17024 1.88819 -0.743891
lowerneck -1.52457 7.40658 11.6868
upperneck -24.2822 10.2309 -16.7345
head -5.42125 6.51544 -7.83208
rclavicle 2.94201e-014 -1.68967e-014
rhumerus -101.649 18.1789 -91.2574
rradius 103.881
rwrist -41.769
rhand -40.4887 5.96109
rfingers 7.12502
rthumb -13.4389 -23.5854
lclavicle 2.94201e-014 -1.68967e-014
lhumerus -85.2972 -8.30799 79.9675
lradius 93.1707
lwrist 29.4914
lhand -41.8761 16.6928
lfingers 7.12502
lthumb -14.7758 46.1461
rfemur -38.9811 0.972265 26.4866
rtibia 60.1508
rfoot -14.0233 -16.2546
rtoes -28.1094
lfemur -29.0303 -4.85593 -17.8368
ltibia 47.7967
lfoot -21.3866 15.6093
ltoes -20.0449
222
root 8.91212 15.3932 3.19366 190.799 5.94148 -177.214
lowerback 24.4268 -0.794547 -0.157598
upperback 11.522 1.54451 -0.0646763
thorax -0.89854 1.81451 -0.371498
lowerneck -1.6683 7.35034 11.4006
upperneck -25.3284 10.2897 -16.6258
head -5.75 6.6571 -7.83499
rclavicle -9.83984e-015 5.46658e-015
rhumerus -101.889 16.5791 -90.621
rradius 103.38
rwrist -42.9284
rhand -40.7458 5.25831
rfingers 7.12502
rthumb -13.6866 -24.2716
lclavicle -9.83984e-015 5.46658e-015
lhumerus -85.6709 -6.08701 78.3941
lradius 91.9143
lwrist 30.3568
lhand -42.1915 18.0541
lfingers 7.12502
lthumb -15.0797 47.4849
rfemur -41.7186 1.40133 26.9704
rtibia 61.9907
rfoot -14.1263 -15.7853
rtoes -27.715
lfemur -31.7951 -4.44135 -17.6252
ltibia 50.4611
lfoot -22.5039 15.0028
ltoes -18.1093
223
root 8.90621 15.108 3.23393 192.165 5.37476 -176.887
lowerback 24.0316 -0.862388 -0.134912
upperback 11.4281 1.41165 0.224475
thorax -0.821121 1.71525 -0.0338351
lowerneck -1.77241 7.26573 11.1983
upperneck -26.3902 10.3319 -16.5289
head -6.09232 6.78991 -7.86462
rclavicle -1.09332e-015 1.59028e-015
rhumerus -100.968 14.9639 -89.8589
rradius 102.594
rwrist -44.2652
rhand -40.7528 4.28815
rfingers 7.12502
rthumb -13.6934 -25.2413
lclavicle -1.09332e-015 1.59028e-015
lhumerus -85.0148 -3.64736 76.8944
lradius 90.2384
lwrist 31.1714
lhand -42.3911 19.4492
lfingers 7.12502
lthumb -15.2719 48.8654
rfemur -44.3397 1.61691 27.5417
rtibia 63.7918
rfoot -14.8524 -15.4387
rtoes -27.908
lfemur -34.989 -3.84145 -17.3785
ltibia 53.7037
lfoot -24.3583 14.2009
ltoes -16.4303
224
root 8.90389 14.7974 3.27263 193.545 4.69092 -176.536
lowerback 23.7242 -0.906561 -0.0268812
upperback 11.1567 1.28581 0.551024
thorax -0.979523 1.60575 0.284372
lowerneck -1.7235 7.10856 10.9276
upperneck -27.6114 10.3354 -16.3151
head -6.53891 6.91437 -7.87675
rclavicle 1.63997e-014 -4.96962e-015
rhumerus -98.7521 13.3394 -88.9012
rradius 101.6
rwrist -45.6176
rhand -40.7783 3.05652
rfingers 7.12502
rthumb -13.718 -26.4713
lclavicle 1.63997e-014 -4.96962e-015
lhumerus -83.2439 -1.04368 75.6455
lradius 88.2336
lwrist 31.6686
lhand -42.4132 21.0809
lfingers 7.12502
lthumb -15.2931 50.4955
rfemur -46.8185 1.68079 28.2064
rtibia 65.6459
rfoot -16.4491 -15.4415
rtoes -29.3019
lfemur -38.6181 -3.08284 -17.0909
ltibia 57.5384
lfoot -26.6217 13.3107
ltoes -15.373
225
root 8.9065 14.4755 3.3092 194.801 4.01711 -176.292
lowerback 23.5811 -0.884491 -0.0282305
upperback 10.7591 1.20357 0.866024
thorax -1.35389 1.50741 0.634637
lowerneck -1.48447 6.88104 10.5442
upperneck -29.0095 10.3146 -15.962
head -7.10904 7.03881 -7.86285
rclavicle -8.54774e-015 1.16289e-014
rhumerus -95.1409 11.7045 -87.7962
rradius 100.4
rwrist -46.7264
rhand -40.925 1.81171
rfingers 7.12502
rthumb -13.8593 -27.7065
lclavicle -8.54774e-015 1.16289e-014
lhumerus -80.2362 1.78331 74.8128
lradius 86.0016
lwrist 31.9431
lhand -42.3628 22.5024
lfingers 7.12502
lthumb -15.2446 51.9207
rfemur -49.1399 1.72368 28.7851
rtibia 67.6966
rfoot -18.9793 -15.7503
rtoes -30.6058
lfemur -42.4972 -2.2304 -16.9131
ltibia 61.8419
lfoot -28.8564 12.4757
ltoes -15.095
226
root 8.91261 14.1599 3.34106 195.746 3.46435 -176.166
lowerback 23.6897 -0.791972 -0.171328
upperback 10.3241 1.19396 1.12245
thorax -1.88986 1.44814 0.980576
lowerneck -1.0062 6.60068 10.2169
upperneck -30.5439 10.2642 -15.6318
head -7.78035 7.15259 -7.906
rclavicle 1.88845e-015 3.77691e-015
rhumerus -90.0329 10.0191 -86.6364
rradius 98.964
rwrist -47.3532
rhand -41.2967 0.77128
rfingers 7.12502
rthumb -14.2175 -28.7221
lclavicle 1.88845e-015 3.77691e-015
lhumerus -75.9232 4.75406 74.5686
lradius 83.8048
lwrist 32.2808
lhand -42.451 23.6525
lfingers 7.12502
lthumb -15.3296 53.0643
rfemur -51.2365 1.82622 29.2539
rtibia 70
rfoot -21.9088 -16.5176
rtoes -31.8984
lfemur -46.2541 -1.37409 -16.8814
ltibia 66.3493
lfoot -30.6893 11.8309
ltoes -15.6136
227
root 8.92109 13.8647 3.36693 196.313 3.07275 -176.126
lowerback 23.9561 -0.65184 -0.386945
upperback 9.93918 1.25481 1.29694
thorax -2.44762 1.43658 1.26217
lowerneck -0.370693 6.29356 9.93705
upperneck -32.0082 10.1774 -15.3352
head -8.47175 7.23403 -7.98154
rclavicle 1.31198e-014 -6.95746e-016
rhumerus -83.3745 8.29097 -85.6353
rradius 97.3138
rwrist -47.4612
rhand -41.899 0.100119
rfingers 7.12502
rthumb -14.7978 -29.3516
lclavicle 1.31198e-014 -6.95746e-016
lhumerus -70.2492 7.74255 75.1153
lradius 81.9728
lwrist 32.7182
lhand -42.3979 24.5986
lfingers 7.12502
lthumb -15.2784 54.0144
rfemur -53.1082 2.01699 29.6852
rtibia 72.515
rfoot -24.5992 -17.8192
rtoes -32.7354
lfemur -49.5937 -0.609603 -16.9644
ltibia 70.7427
lfoot -31.9452 11.4815
ltoes -16.5569
228
root 8.92961 13.6096 3.38347 196.369 2.85498 -176.087
lowerback 24.3862 -0.537058 -0.554962
upperback 9.67849 1.33055 1.34518
thorax -2.94706 1.45527 1.37693
lowerneck 0.361579 6.04407 9.77663
upperneck -33.2 10.1206 -15.0853
head -9.0831 7.28582 -8.07393
rclavicle 7.45443e-015 1.17283e-014
rhumerus -75.1745 6.72622 -85.1737
rradius 95.4711
rwrist -47.071
rhand -42.7571 -0.145065
rfingers 7.12502
rthumb -15.6244 -29.5341
lclavicle 7.45443e-015 1.17283e-014
lhumerus -63.2191 10.3952 76.691
lradius 80.751
lwrist 33.5418
lhand -42.4738 25.4177
lfingers 7.12502
lthumb -15.3516 54.8278
rfemur -54.5687 2.30218 30.1508
rtibia 75.0453
rfoot -26.7888 -19.2757
rtoes -32.0681
lfemur -52.0534 -0.0196667 -17.0771
ltibia 74.6606
lfoot -32.7632 11.2408
ltoes -16.997
229
root 8.93774 13.4045 3.39249 195.948 2.72912 -175.974
lowerback 24.8702 -0.499606 -0.57962
upperback 9.53585 1.36812 1.30585
thorax -3.33926 1.4743 1.32618
lowerneck 1.07805 5.90384 9.77125
upperneck -33.8755 10.0967 -14.9123
head -9.4887 7.28579 -8.15361
rclavicle 1.55052e-014 5.06901e-015
rhumerus -65.6626 5.52846 -85.3366
rradius 93.6111
rwrist -46.4805
rhand -43.4579 -0.130704
rfingers 7.12502
rthumb -16.2993 -29.4657
lclavicle 1.55052e-014 5.06901e-015
lhumerus -54.9505 12.1445 79.4322
lradius 80.3848
lwrist 34.984
lhand -42.9015 26.1731
lfingers 7.12502
lthumb -15.7635 55.5512
rfemur -55.4726 2.61267 30.7729
rtibia 77.3154
rfoot -28.2338 -20.6857
rtoes -29.918
lfemur -53.5066 0.313524 -17.1002
ltibia 77.8755
lfoot -33.3006 11.2935
ltoes -17.2979
